<svg width="1440" height="900" viewBox="0 0 1440 900" fill="none" xmlns="http://www.w3.org/2000/svg">
  <rect width="1440" height="900" fill="#F5F7FA"/>

  <text x="80" y="78" fill="#18212F" font-family="Arial, sans-serif" font-size="30" font-weight="700">媒体缓存清理 · 自助修复入口效果图</text>
  <text x="80" y="113" fill="#667085" font-family="Arial, sans-serif" font-size="16">入口固定在 设置 → 反馈 → 自助修复；第一版只做总量/分类清理，不做缓存图片图库或逐图选择。</text>

  <g transform="translate(80 160)">
    <rect x="0" y="0" width="330" height="620" rx="28" fill="#101828"/>
    <rect x="16" y="18" width="298" height="584" rx="22" fill="#FFFFFF"/>
    <rect x="136" y="34" width="58" height="5" rx="2.5" fill="#D0D5DD"/>
    <text x="36" y="76" fill="#101828" font-family="Arial, sans-serif" font-size="22" font-weight="700">设置</text>

    <rect x="36" y="104" width="258" height="64" rx="14" fill="#F2F4F7"/>
    <circle cx="62" cy="136" r="13" fill="#D6E4FF"/>
    <path d="M56 136h12M62 130v12" stroke="#2F5AAC" stroke-width="2" stroke-linecap="round"/>
    <text x="86" y="130" fill="#101828" font-family="Arial, sans-serif" font-size="15" font-weight="700">实验室</text>
    <text x="86" y="151" fill="#667085" font-family="Arial, sans-serif" font-size="12">高级能力与开关</text>

    <rect x="36" y="184" width="258" height="64" rx="14" fill="#F2F4F7"/>
    <circle cx="62" cy="216" r="13" fill="#FFE7D6"/>
    <path d="M58 212h8M58 216h11M58 220h6" stroke="#B54708" stroke-width="2" stroke-linecap="round"/>
    <text x="86" y="210" fill="#101828" font-family="Arial, sans-serif" font-size="15" font-weight="700">组件</text>
    <text x="86" y="231" fill="#667085" font-family="Arial, sans-serif" font-size="12">图片压缩、组件设置</text>

    <rect x="36" y="264" width="258" height="74" rx="14" fill="#E9F6F0" stroke="#7BC6A4" stroke-width="1.5"/>
    <circle cx="62" cy="301" r="13" fill="#C8F2DC"/>
    <path d="M56 301c3-5 9-5 12 0M57 306h10" stroke="#087443" stroke-width="2" stroke-linecap="round"/>
    <text x="86" y="295" fill="#101828" font-family="Arial, sans-serif" font-size="15" font-weight="700">反馈</text>
    <text x="86" y="316" fill="#667085" font-family="Arial, sans-serif" font-size="12">日志、自助修复、问题反馈</text>
    <path d="M277 296l7 7-7 7" stroke="#667085" stroke-width="2" stroke-linecap="round" stroke-linejoin="round"/>

    <text x="36" y="380" fill="#667085" font-family="Arial, sans-serif" font-size="12" font-weight="700">路径</text>
    <rect x="36" y="396" width="258" height="42" rx="12" fill="#F9FAFB"/>
    <text x="54" y="423" fill="#344054" font-family="Arial, sans-serif" font-size="14">设置 → 反馈</text>
  </g>

  <g transform="translate(455 160)">
    <rect x="0" y="0" width="330" height="620" rx="28" fill="#101828"/>
    <rect x="16" y="18" width="298" height="584" rx="22" fill="#FFFFFF"/>
    <rect x="136" y="34" width="58" height="5" rx="2.5" fill="#D0D5DD"/>
    <text x="36" y="76" fill="#101828" font-family="Arial, sans-serif" font-size="22" font-weight="700">反馈</text>

    <rect x="36" y="108" width="258" height="74" rx="14" fill="#F2F4F7"/>
    <circle cx="62" cy="145" r="13" fill="#E0EAFF"/>
    <path d="M56 141h12M56 146h8M56 151h10" stroke="#2F5AAC" stroke-width="2" stroke-linecap="round"/>
    <text x="86" y="139" fill="#101828" font-family="Arial, sans-serif" font-size="15" font-weight="700">提交日志</text>
    <text x="86" y="160" fill="#667085" font-family="Arial, sans-serif" font-size="12">导出诊断信息</text>

    <rect x="36" y="198" width="258" height="82" rx="14" fill="#E9F6F0" stroke="#7BC6A4" stroke-width="1.5"/>
    <circle cx="62" cy="239" r="13" fill="#C8F2DC"/>
    <path d="M62 231v5M62 242v5M55 239h5M64 239h5" stroke="#087443" stroke-width="2" stroke-linecap="round"/>
    <text x="86" y="232" fill="#101828" font-family="Arial, sans-serif" font-size="15" font-weight="700">自助修复</text>
    <text x="86" y="253" fill="#667085" font-family="Arial, sans-serif" font-size="12">标签、搜索、统计与媒体缓存</text>
    <path d="M277 234l7 7-7 7" stroke="#667085" stroke-width="2" stroke-linecap="round" stroke-linejoin="round"/>

    <rect x="36" y="296" width="258" height="74" rx="14" fill="#F2F4F7"/>
    <circle cx="62" cy="333" r="13" fill="#FFF2CC"/>
    <path d="M57 333h10M62 328v10" stroke="#B54708" stroke-width="2" stroke-linecap="round"/>
    <text x="86" y="327" fill="#101828" font-family="Arial, sans-serif" font-size="15" font-weight="700">如何反馈</text>
    <text x="86" y="348" fill="#667085" font-family="Arial, sans-serif" font-size="12">打开 GitHub issue</text>
  </g>

  <g transform="translate(830 92)">
    <rect x="0" y="0" width="520" height="740" rx="30" fill="#101828"/>
    <rect x="18" y="20" width="484" height="700" rx="24" fill="#FFFFFF"/>
    <rect x="224" y="38" width="72" height="6" rx="3" fill="#D0D5DD"/>

    <text x="48" y="90" fill="#101828" font-family="Arial, sans-serif" font-size="24" font-weight="700">自助修复</text>
    <text x="48" y="118" fill="#667085" font-family="Arial, sans-serif" font-size="13">这些操作只维护本地派生数据，不会删除笔记或附件源文件。</text>

    <rect x="48" y="146" width="424" height="70" rx="14" fill="#F9FAFB" stroke="#EAECF0"/>
    <circle cx="78" cy="181" r="14" fill="#FCE7F3"/>
    <path d="M72 181h12M78 175v12" stroke="#C11574" stroke-width="2" stroke-linecap="round"/>
    <text x="106" y="176" fill="#101828" font-family="Arial, sans-serif" font-size="15" font-weight="700">修复异常标签</text>
    <text x="106" y="197" fill="#667085" font-family="Arial, sans-serif" font-size="12">从当前笔记正文重建 #tag</text>

    <rect x="48" y="230" width="424" height="70" rx="14" fill="#F9FAFB" stroke="#EAECF0"/>
    <circle cx="78" cy="265" r="14" fill="#E0EAFF"/>
    <path d="M73 265h10M83 265l5 5" stroke="#2F5AAC" stroke-width="2" stroke-linecap="round"/>
    <text x="106" y="260" fill="#101828" font-family="Arial, sans-serif" font-size="15" font-weight="700">重建搜索索引</text>
    <text x="106" y="281" fill="#667085" font-family="Arial, sans-serif" font-size="12">恢复本地关键词搜索数据</text>

    <rect x="48" y="314" width="424" height="70" rx="14" fill="#F9FAFB" stroke="#EAECF0"/>
    <circle cx="78" cy="349" r="14" fill="#E9D7FE"/>
    <path d="M72 354h12M74 349h8M76 344h4" stroke="#7F56D9" stroke-width="2" stroke-linecap="round"/>
    <text x="106" y="344" fill="#101828" font-family="Arial, sans-serif" font-size="15" font-weight="700">重建统计缓存</text>
    <text x="106" y="365" fill="#667085" font-family="Arial, sans-serif" font-size="12">热力图、标签统计、概要计数</text>

    <rect x="48" y="410" width="424" height="172" rx="18" fill="#EEF8F3" stroke="#7BC6A4" stroke-width="1.5"/>
    <circle cx="78" cy="449" r="16" fill="#C8F2DC"/>
    <path d="M72 449h12M75 443h6M75 455h6" stroke="#087443" stroke-width="2" stroke-linecap="round"/>
    <text x="106" y="442" fill="#101828" font-family="Arial, sans-serif" font-size="17" font-weight="700">清理媒体缓存</text>
    <text x="106" y="464" fill="#667085" font-family="Arial, sans-serif" font-size="12">释放图片缓存和视频缩略图占用空间</text>

    <rect x="72" y="486" width="376" height="1" fill="#D6EDE2"/>
    <text x="72" y="516" fill="#344054" font-family="Arial, sans-serif" font-size="13">总计</text>
    <text x="398" y="516" text-anchor="end" fill="#101828" font-family="Arial, sans-serif" font-size="15" font-weight="700">8.7 GB</text>
    <text x="72" y="546" fill="#667085" font-family="Arial, sans-serif" font-size="12">网络图片 8.2 GB · 视频缩略图 240 MB · 临时缓存 310 MB</text>
    <rect x="356" y="528" width="92" height="34" rx="17" fill="#087443"/>
    <text x="402" y="550" text-anchor="middle" fill="#FFFFFF" font-family="Arial, sans-serif" font-size="13" font-weight="700">清理</text>

    <rect x="48" y="606" width="424" height="70" rx="16" fill="#FFF8E6" stroke="#FEDF89"/>
    <circle cx="77" cy="641" r="14" fill="#FEF0C7"/>
    <text x="77" y="646" text-anchor="middle" fill="#B54708" font-family="Arial, sans-serif" font-size="18" font-weight="700">!</text>
    <text x="106" y="636" fill="#101828" font-family="Arial, sans-serif" font-size="14" font-weight="700">不会显示缓存图片列表</text>
    <text x="106" y="657" fill="#667085" font-family="Arial, sans-serif" font-size="12">只做总量/分类级批量清理，避免误解为图库管理。</text>
  </g>

  <g transform="translate(900 304)">
    <rect x="0" y="0" width="380" height="250" rx="24" fill="#FFFFFF" stroke="#D0D5DD" filter="url(#shadow)"/>
    <text x="28" y="42" fill="#101828" font-family="Arial, sans-serif" font-size="19" font-weight="700">清理媒体缓存？</text>
    <text x="28" y="76" fill="#667085" font-family="Arial, sans-serif" font-size="13">将清理网络图片缓存、视频缩略图和临时媒体派生缓存。</text>
    <text x="28" y="104" fill="#667085" font-family="Arial, sans-serif" font-size="13">不会删除笔记、账号、附件源文件、WebDAV 备份或远端数据。</text>

    <rect x="28" y="126" width="324" height="48" rx="12" fill="#F2F4F7"/>
    <text x="48" y="156" fill="#344054" font-family="Arial, sans-serif" font-size="13">预计释放</text>
    <text x="324" y="156" text-anchor="end" fill="#101828" font-family="Arial, sans-serif" font-size="16" font-weight="700">8.7 GB</text>

    <rect x="164" y="194" width="82" height="36" rx="18" fill="#FFFFFF" stroke="#D0D5DD"/>
    <text x="205" y="217" text-anchor="middle" fill="#344054" font-family="Arial, sans-serif" font-size="13" font-weight="700">取消</text>
    <rect x="260" y="194" width="92" height="36" rx="18" fill="#087443"/>
    <text x="306" y="217" text-anchor="middle" fill="#FFFFFF" font-family="Arial, sans-serif" font-size="13" font-weight="700">确认清理</text>
  </g>

  <path d="M420 455C444 455 426 238 455 238" stroke="#98A2B3" stroke-width="2" stroke-dasharray="5 7"/>
  <path d="M795 238C820 238 804 500 830 500" stroke="#98A2B3" stroke-width="2" stroke-dasharray="5 7"/>

  <defs>
    <filter id="shadow" x="-30" y="-30" width="440" height="310" filterUnits="userSpaceOnUse" color-interpolation-filters="sRGB">
      <feDropShadow dx="0" dy="18" stdDeviation="18" flood-color="#101828" flood-opacity="0.18"/>
    </filter>
  </defs>
</svg>
