<svg xmlns="http://www.w3.org/2000/svg" width="260" height="58" viewBox="0 0 260 58" role="img" aria-labelledby="title desc">
  <title id="title">GitHub Release Download</title>
  <desc id="desc">A GitHub release download button.</desc>
  <rect x="1" y="1" width="258" height="56" rx="8" fill="#24292f" stroke="#57606a" stroke-width="2"/>
  <g transform="translate(22 14)" fill="#fff">
    <path d="M15 0C6.7 0 0 6.9 0 15.3c0 6.8 4.3 12.5 10.3 14.5.8.1 1-.3 1-.7v-2.7c-4.2.9-5.1-1.8-5.1-1.8-.7-1.8-1.7-2.3-1.7-2.3-1.4-1 0-1 0-1 1.5.1 2.3 1.6 2.3 1.6 1.3 2.4 3.6 1.7 4.5 1.3.1-1 .5-1.7.9-2.1-3.4-.4-6.9-1.7-6.9-7.6 0-1.7.6-3 1.5-4.1-.2-.4-.7-2 .1-4.1 0 0 1.3-.4 4.2 1.6 1.2-.3 2.5-.5 3.8-.5s2.6.2 3.8.5c2.9-2 4.2-1.6 4.2-1.6.8 2.1.3 3.7.1 4.1 1 1.1 1.5 2.4 1.5 4.1 0 5.9-3.5 7.2-6.9 7.6.6.5 1.1 1.5 1.1 3v4.1c0 .4.3.9 1 .7C25.7 27.8 30 22.1 30 15.3 30 6.9 23.3 0 15 0z"/>
  </g>
  <text x="64" y="30" fill="#fff" font-family="Arial, Helvetica, sans-serif" font-size="22" font-weight="700">GitHub</text>
  <text x="64" y="48" fill="#fff" font-family="Arial, Helvetica, sans-serif" font-size="14" font-weight="400">Releases</text>
</svg>
