<svg xmlns="http://www.w3.org/2000/svg" width="260" height="58" viewBox="0 0 260 58" role="img" aria-labelledby="title desc">
  <title id="title">Google Play 立即下载</title>
  <desc id="desc">A Google Play download button with a colorful Google Play icon.</desc>
  <rect x="1" y="1" width="258" height="56" rx="8" fill="#202124" stroke="#3c4043" stroke-width="2"/>
  <g transform="translate(22 14)">
    <path d="M2.1 1.4c-.5.5-.8 1.2-.8 2.1v23c0 .9.3 1.6.8 2.1l13.2-13.6L2.1 1.4z" fill="#00A0FF"/>
    <path d="M15.3 15 2.1 28.6c.8.8 2 .9 3.4.2l15.7-8.9-5.9-4.9z" fill="#00D084"/>
    <path d="M21.2 10.1 5.5 1.2C4.1.5 2.9.6 2.1 1.4L15.3 15l5.9-4.9z" fill="#FFCE00"/>
    <path d="M21.2 10.1 15.3 15l5.9 4.9 3.6-2c2.4-1.4 2.4-4.3 0-5.7l-3.6-2.1z" fill="#FF3D00"/>
  </g>
  <text x="64" y="29" fill="#fff" font-family="Arial, Helvetica, sans-serif" font-size="19" font-weight="700">Google Play</text>
  <text x="64" y="47" fill="#fff" font-family="Arial, Helvetica, sans-serif" font-size="15" font-weight="400">立即下载</text>
</svg>
